<svg width="108" height="108" viewBox="0 0 108 108" fill="none" xmlns="http://www.w3.org/2000/svg">
  <rect width="108" height="108" fill="#DADFDB"/>
  <circle cx="54" cy="54" r="40" fill="#C2BAAE"/>
  <path d="M54 34C44.4 34 36 42.4 36 52C36 61.6 44.4 70 54 70C63.6 70 72 61.6 72 52C72 42.4 63.6 34 54 34ZM54 66C46.4 66 40 59.6 40 52C40 44.4 46.4 38 54 38C61.6 38 68 44.4 68 52C68 59.6 61.6 66 54 66Z" fill="#654C37"/>
  <path d="M54 42C48.8 42 44 46.8 44 52C44 57.2 48.8 62 54 62C59.2 62 64 57.2 64 52C64 46.8 59.2 42 54 42ZM54 58C50.8 58 48 55.2 48 52C48 48.8 50.8 46 54 46C57.2 46 60 48.8 60 52C60 55.2 57.2 58 54 58Z" fill="#383B26"/>
  <path d="M54 48C52 48 50 50 50 52C50 54 52 56 54 56C56 56 58 54 58 52C58 50 56 48 54 48Z" fill="#8F907E"/>
</svg> 