<svg width="32" height="32" viewBox="0 0 32 32" fill="none" xmlns="http://www.w3.org/2000/svg">
  <circle cx="16" cy="16" r="16" fill="#C2BAAE"/>
  <path d="M16 8C13.6 8 11.6 10 11.6 12.4C11.6 14.8 13.6 16.8 16 16.8C18.4 16.8 20.4 14.8 20.4 12.4C20.4 10 18.4 8 16 8ZM16 15.6C14.4 15.6 12.8 14 12.8 12.4C12.8 10.8 14.4 9.2 16 9.2C17.6 9.2 19.2 10.8 19.2 12.4C19.2 14 17.6 15.6 16 15.6Z" fill="#654C37"/>
  <path d="M16 10C14.4 10 13.2 11.2 13.2 12.8C13.2 14.4 14.4 15.6 16 15.6C17.6 15.6 18.8 14.4 18.8 12.8C18.8 11.2 17.6 10 16 10ZM16 14.8C14.8 14.8 14 14 14 12.8C14 11.6 14.8 10.8 16 10.8C17.2 10.8 18 11.6 18 12.8C18 14 17.2 14.8 16 14.8Z" fill="#383B26"/>
  <path d="M16 11.6C15.6 11.6 15.2 12 15.2 12.4C15.2 12.8 15.6 13.2 16 13.2C16.4 13.2 16.8 12.8 16.8 12.4C16.8 12 16.4 11.6 16 11.6Z" fill="#8F907E"/>
  <path d="M16 17.6C12.8 17.6 10 20.4 10 23.6H22C22 20.4 19.2 17.6 16 17.6Z" fill="#654C37"/>
</svg> 