<svg width="1024" height="1024" viewBox="0 0 1024 1024" fill="none" xmlns="http://www.w3.org/2000/svg">
  <rect width="1024" height="1024" fill="#DADFDB"/>
  <circle cx="512" cy="512" r="400" fill="#C2BAAE"/>
  <path d="M512 312C412.4 312 332 392.4 332 492C332 591.6 412.4 672 512 672C611.6 672 692 591.6 692 492C692 392.4 611.6 312 512 312ZM512 632C434.4 632 372 569.6 372 492C372 414.4 434.4 352 512 352C589.6 352 652 414.4 652 492C652 569.6 589.6 632 512 632Z" fill="#654C37"/>
  <path d="M512 392C456.8 392 412 436.8 412 492C412 547.2 456.8 592 512 592C567.2 592 612 547.2 612 492C612 436.8 567.2 392 512 392ZM512 552C478.8 552 452 525.2 452 492C452 458.8 478.8 432 512 432C545.2 432 572 458.8 572 492C572 525.2 545.2 552 512 552Z" fill="#383B26"/>
  <path d="M512 452C490 452 472 470 472 492C472 514 490 532 512 532C534 532 552 514 552 492C552 470 534 452 512 452Z" fill="#8F907E"/>
</svg> 