<svg width="1242" height="2436" viewBox="0 0 1242 2436" fill="none" xmlns="http://www.w3.org/2000/svg">
  <rect width="1242" height="2436" fill="#DADFDB"/>
  <circle cx="621" cy="1218" r="400" fill="#C2BAAE"/>
  <path d="M621 1018C521.4 1018 441 1098.4 441 1198C441 1297.6 521.4 1378 621 1378C720.6 1378 801 1297.6 801 1198C801 1098.4 720.6 1018 621 1018ZM621 1338C543.4 1338 481 1275.6 481 1198C481 1120.4 543.4 1058 621 1058C698.6 1058 761 1120.4 761 1198C761 1275.6 698.6 1338 621 1338Z" fill="#654C37"/>
  <path d="M621 1098C565.8 1098 521 1142.8 521 1198C521 1253.2 565.8 1298 621 1298C676.2 1298 721 1253.2 721 1198C721 1142.8 676.2 1098 621 1098ZM621 1258C587.8 1258 561 1231.2 561 1198C561 1164.8 587.8 1138 621 1138C654.2 1138 681 1164.8 681 1198C681 1231.2 654.2 1258 621 1258Z" fill="#383B26"/>
  <path d="M621 1158C599 1158 581 1176 581 1198C581 1220 599 1238 621 1238C643 1238 661 1220 661 1198C661 1176 643 1158 621 1158Z" fill="#8F907E"/>
  <text x="621" y="1600" font-family="Arial" font-size="72" text-anchor="middle" fill="#654C37">Mantra App</text>
  <text x="621" y="1680" font-family="Arial" font-size="36" text-anchor="middle" fill="#8F907E">Daily motivation and mindfulness</text>
</svg> 